<svg width="512" height="512" viewBox="0 0 27.1915 27.1915" fill="none" xmlns="http://www.w3.org/2000/svg">
  <rect width="27.1915" height="27.1915" rx="6" fill="#040404"/>
  <path d="M23.517 13.5958 C23.517 8.1164 19.075 3.6745 13.595 3.6745 C8.116 3.6745 3.674 8.1164 3.674 13.5958 C3.674 19.0751 8.116 23.517 13.595 23.517 V27.1915 C6.087 27.1915 0 21.1045 0 13.5958 C0 6.087 6.087 0 13.595 0 C21.104 0 27.191 6.087 27.191 13.5958 C27.191 21.1045 21.104 27.1915 13.595 27.1915 V23.517 C19.075 23.517 23.517 19.0751 23.517 13.5958 Z" fill="#C5DD01"/>
  <path d="M3.911 15.7466 C5.375 15.2233 6.72 15.1111 7.973 15.3481 C9.716 15.6777 11.093 16.6464 12.227 17.6899 C12.796 18.2134 13.326 18.7778 13.82 19.3149 C14.325 19.8645 14.781 20.3718 15.247 20.8462 C16.16 21.7753 16.934 22.3765 17.715 22.6196 C16.661 23.1016 15.51 23.404 14.296 23.4887 C13.985 23.2157 13.69 22.932 13.412 22.6489 C12.906 22.1343 12.402 21.5709 11.927 21.0551 C11.442 20.5269 10.971 20.0303 10.485 19.5835 C9.51 18.6864 8.561 18.0769 7.496 17.8755 C6.765 17.7372 5.884 17.7744 4.789 18.1635 C4.397 17.4093 4.099 16.5987 3.911 15.7466 ZM9.439 4.5874 C10.878 6.8877 14.926 10.0422 22.376 8.978 C22.78 9.7452 23.086 10.5713 23.279 11.4409 C14.666 12.849 9.344 9.3088 7.26 5.9604 C7.92 5.4128 8.652 4.9511 9.439 4.5874 Z" fill="#FFFFFF"/>
</svg>
