<svg width="140" height="35" viewBox="0 0 140 35" fill="none" xmlns="http://www.w3.org/2000/svg">
<path d="M12.2178 7.90027C18.9655 7.90027 24.4355 13.2882 24.4355 19.9344C24.4355 19.9651 24.4348 19.9957 24.4346 20.0262H24.4355V32.1522H19.6582V29.4764C17.5974 31.0377 15.0186 31.9686 12.2178 31.9686C5.47011 31.9686 3.97697e-05 26.5807 0 19.9344C0 13.2882 5.47008 7.90028 12.2178 7.90027ZM12.2188 12.8553C8.24951 12.8553 5.03125 16.0249 5.03125 19.9344C5.03132 23.844 8.24955 27.0135 12.2188 27.0135C16.1879 27.0135 19.4052 23.8439 19.4053 19.9344C19.4053 16.0249 16.1879 12.8554 12.2188 12.8553Z" fill="white"/>
<path d="M88.1885 11.3911V0H85.4327C84.4222 0 82.6768 0.826771 82.6768 3.39895V32.1522H87.8211V17.8215C87.8211 16.0626 90.6689 13.4121 94.8946 13.4121C99.1203 13.4121 101.968 15.9842 101.968 17.8215V32.1522H107.112V17.4541C107.112 13.9632 104.448 8.45143 96.9155 8.45143C90.8893 8.45143 88.5866 10.4724 88.1885 11.3911Z" fill="white"/>
<path d="M31.5087 0H34.0809C34.0809 0 34.1727 22.0472 34.1727 24.2519C34.1727 26.4567 35.3669 27.7428 37.1123 27.7428C37.9391 27.7428 38.1228 27.7428 38.1228 27.7428V32.1522C38.1228 32.1522 39.7764 32.1522 35.2751 32.1522C30.7738 32.1522 28.9365 28.0183 28.9365 24.2519C28.9365 21.3131 28.9365 8.19484 28.9365 2.57218C28.9365 1.74541 29.5796 0 31.5087 0Z" fill="white"/>
<ellipse cx="44.5529" cy="2.93963" rx="2.93962" ry="2.93963" fill="white"/>
<rect x="41.9824" y="8.63513" width="5.14434" height="23.517" fill="white"/>
<path d="M52.9658 15.2493V31.5092H57.8346V18.0971C57.8346 16.4436 59.8556 12.9527 65.7348 12.9527C70.4382 12.9527 72.349 16.6273 72.349 18.0971V31.5092H77.1258V15.3412C77.1258 12.5853 72.6245 8.08398 66.286 8.08398C61.4172 8.08398 59.0288 9.79877 57.9264 10.6562V7.07349C52.9659 7.07349 52.9658 11.5748 52.9658 15.2493Z" fill="white"/>
<path d="M116.72 22.6364C118.184 22.1131 119.529 22.0009 120.782 22.2379C122.525 22.5675 123.902 23.5362 125.036 24.5797C125.605 25.1032 126.135 25.6676 126.629 26.2047C127.134 26.7543 127.59 27.2616 128.056 27.736C128.969 28.6651 129.743 29.2663 130.524 29.5094C129.47 29.9914 128.319 30.2938 127.105 30.3785C126.794 30.1055 126.499 29.8218 126.221 29.5387C125.715 29.0241 125.211 28.4607 124.736 27.9449C124.251 27.4167 123.78 26.9201 123.294 26.4733C122.319 25.5762 121.37 24.9667 120.305 24.7653C119.574 24.627 118.693 24.6642 117.598 25.0533C117.206 24.2991 116.908 23.4885 116.72 22.6364ZM122.248 11.4772C123.687 13.7775 127.735 16.932 135.185 15.8678C135.589 16.635 135.895 17.4611 136.088 18.3307C127.475 19.7388 122.153 16.1986 120.069 12.8502C120.729 12.3026 121.461 11.8409 122.248 11.4772Z" fill="white"/>
<path d="M136.326 20.4856C136.326 15.0062 131.884 10.5643 126.404 10.5643C120.925 10.5643 116.483 15.0062 116.483 20.4856C116.483 25.9649 120.925 30.4068 126.404 30.4068V34.0813C118.896 34.0813 112.809 27.9943 112.809 20.4856C112.809 12.9768 118.896 6.88977 126.404 6.88977C133.913 6.88977 140 12.9768 140 20.4856C140 27.9943 133.913 34.0813 126.404 34.0813V30.4068C131.884 30.4068 136.326 25.9649 136.326 20.4856Z" fill="#C5DD01"/>
</svg>
